<svg width="24" height="21" viewBox="0 0 24 21" fill="none" xmlns="http://www.w3.org/2000/svg">
<path d="M2.72724 11.8034L4.16929 10.4176L4.15551 10.4032L4.14146 10.3892C2.32629 8.574 2.32629 5.63104 4.14146 3.81588C5.89113 2.06621 8.69027 2.00299 10.5142 3.62663C10.5103 3.6232 10.5143 3.62719 10.5521 3.66466C10.5653 3.67784 10.5827 3.69515 10.6055 3.71774L10.6057 3.71797C10.6316 3.74369 10.6828 3.79469 10.7345 3.84233C10.7565 3.8626 10.8135 3.91484 10.8866 3.97177C10.9196 3.99747 10.9994 4.05851 11.1083 4.12269C11.1628 4.1548 11.2611 4.20948 11.391 4.26089C11.4966 4.30264 11.767 4.40165 12.1289 4.40166L12.129 4.40166C12.4909 4.40166 12.7614 4.30264 12.867 4.26087C12.9969 4.20945 13.0952 4.15476 13.1497 4.12263C13.2586 4.05844 13.3384 3.99738 13.3714 3.97167C13.4446 3.91472 13.5016 3.86247 13.5236 3.8422C13.5752 3.79455 13.6265 3.74355 13.6524 3.71783L13.6526 3.7176C13.6755 3.69484 13.693 3.67743 13.7063 3.66423C13.7437 3.62706 13.7476 3.62314 13.7437 3.62662C15.5676 2.00298 18.3668 2.06619 20.1165 3.81588C21.9007 5.60007 21.8371 8.64107 20.1054 10.4004L20.094 10.4119L20.0829 10.4236L21.5307 11.8034L20.0828 10.4236L20.0826 10.4238L20.0817 10.4248L20.0775 10.4292L20.0604 10.4472L19.9921 10.5186C19.9319 10.5815 19.8431 10.6741 19.7295 10.7922C19.5023 11.0285 19.1761 11.3666 18.7811 11.7726C17.9902 12.5853 16.9277 13.6662 15.8352 14.7446C14.7376 15.8281 13.631 16.8882 12.7461 17.6691C12.5292 17.8606 12.3335 18.0282 12.1607 18.171C11.9852 18.027 11.7863 17.8579 11.5656 17.6645C10.674 16.8831 9.55847 15.8227 8.45209 14.7391C7.35079 13.6605 6.27947 12.5795 5.48208 11.7667C5.08379 11.3607 4.75476 11.0226 4.52563 10.7863C4.41108 10.6681 4.32155 10.5755 4.26087 10.5126L4.19199 10.4411L4.17468 10.4232L4.17047 10.4188L4.1695 10.4178L4.1693 10.4176L2.72724 11.8034Z" fill="#646464" stroke="#646464" stroke-width="4"/>
</svg>
