<svg width="24" height="21" viewBox="0 0 24 21" fill="none" xmlns="http://www.w3.org/2000/svg">
<path d="M2.72724 11.8034L3.44826 11.1105L3.44138 11.1033L3.43435 11.0963C1.22866 8.89059 1.22866 5.31446 3.43435 3.10877C5.56081 0.982312 8.96181 0.905898 11.1791 2.87971C11.1974 2.89602 11.2274 2.92585 11.2799 2.97814C11.2894 2.98756 11.2996 2.99772 11.3106 3.00866C11.3377 3.0356 11.3764 3.07394 11.4123 3.10706C11.4283 3.12182 11.4611 3.15167 11.5009 3.18272C11.5191 3.19686 11.5604 3.22838 11.616 3.26115C11.6439 3.27754 11.6935 3.30514 11.7589 3.33102C11.8121 3.35207 11.9477 3.40166 12.129 3.40166C12.3102 3.40166 12.4458 3.35206 12.4991 3.33101C12.5645 3.30512 12.6141 3.27751 12.6419 3.26111C12.6976 3.22834 12.7389 3.1968 12.7571 3.18266C12.7969 3.15161 12.8297 3.12174 12.8457 3.10699C12.8816 3.07386 12.9203 3.03552 12.9474 3.00859C12.9584 2.99768 12.9685 2.98756 12.978 2.97816C13.0305 2.92581 13.0605 2.89599 13.0788 2.87971C15.2961 0.905879 18.6971 0.982304 20.8236 3.10878C23.0138 5.29898 22.9173 8.96923 20.818 11.1019L20.8123 11.1076L20.8068 11.1135L21.5307 11.8034L20.8067 11.1135L20.8065 11.1138L20.8054 11.1149L20.8011 11.1195L20.7836 11.1378L20.7145 11.21C20.6539 11.2734 20.5645 11.3666 20.4504 11.4853C20.222 11.7228 19.8943 12.0624 19.4978 12.4699C18.7042 13.2855 17.6367 14.3715 16.5377 15.4563C15.4362 16.5436 14.3139 17.6192 13.4078 18.4189C12.9526 18.8206 12.5689 19.1377 12.2786 19.3491C12.2364 19.3799 12.1978 19.4071 12.1628 19.4311C12.127 19.4067 12.0875 19.3789 12.0441 19.3475C11.7516 19.1358 11.365 18.8184 10.9065 18.4166C9.99379 17.6167 8.86261 16.5409 7.75237 15.4536C6.64467 14.3687 5.56834 13.2826 4.76823 12.467C4.36837 12.0594 4.03797 11.7199 3.80769 11.4824C3.69256 11.3636 3.60248 11.2704 3.54129 11.207L3.47166 11.1348L3.454 11.1164L3.44962 11.1119L3.44856 11.1108L3.44832 11.1105L2.72724 11.8034ZM11.923 19.5755C11.9233 19.575 11.9296 19.5719 11.9415 19.5676C11.9288 19.5738 11.9228 19.576 11.923 19.5755ZM12.3849 19.5671C12.3967 19.5714 12.4031 19.5745 12.4033 19.575C12.4035 19.5754 12.3976 19.5733 12.3849 19.5671Z" stroke="#F1F1F1" stroke-width="2"/>
<path d="M2.72724 11.8034L3.44826 11.1105L3.44138 11.1033L3.43435 11.0963C1.22866 8.89059 1.22866 5.31446 3.43435 3.10877C5.56081 0.982312 8.96181 0.905898 11.1791 2.87971C11.1974 2.89602 11.2274 2.92585 11.2799 2.97814C11.2894 2.98756 11.2996 2.99772 11.3106 3.00866C11.3377 3.0356 11.3764 3.07394 11.4123 3.10706C11.4283 3.12182 11.4611 3.15167 11.5009 3.18272C11.5191 3.19686 11.5604 3.22838 11.616 3.26115C11.6439 3.27754 11.6935 3.30514 11.7589 3.33102C11.8121 3.35207 11.9477 3.40166 12.129 3.40166C12.3102 3.40166 12.4458 3.35206 12.4991 3.33101C12.5645 3.30512 12.6141 3.27751 12.6419 3.26111C12.6976 3.22834 12.7389 3.1968 12.7571 3.18266C12.7969 3.15161 12.8297 3.12174 12.8457 3.10699C12.8816 3.07386 12.9203 3.03552 12.9474 3.00859C12.9584 2.99768 12.9685 2.98756 12.978 2.97816C13.0305 2.92581 13.0605 2.89599 13.0788 2.87971C15.2961 0.905879 18.6971 0.982304 20.8236 3.10878C23.0138 5.29898 22.9173 8.96923 20.818 11.1019L20.8123 11.1076L20.8068 11.1135L21.5307 11.8034L20.8067 11.1135L20.8065 11.1138L20.8054 11.1149L20.8011 11.1195L20.7836 11.1378L20.7145 11.21C20.6539 11.2734 20.5645 11.3666 20.4504 11.4853C20.222 11.7228 19.8943 12.0624 19.4978 12.4699C18.7042 13.2855 17.6367 14.3715 16.5377 15.4563C15.4362 16.5436 14.3139 17.6192 13.4078 18.4189C12.9526 18.8206 12.5689 19.1377 12.2786 19.3491C12.2364 19.3799 12.1978 19.4071 12.1628 19.4311C12.127 19.4067 12.0875 19.3789 12.0441 19.3475C11.7516 19.1358 11.365 18.8184 10.9065 18.4166C9.99379 17.6167 8.86261 16.5409 7.75237 15.4536C6.64467 14.3687 5.56834 13.2826 4.76823 12.467C4.36837 12.0594 4.03797 11.7199 3.80769 11.4824C3.69256 11.3636 3.60248 11.2704 3.54129 11.207L3.47166 11.1348L3.454 11.1164L3.44962 11.1119L3.44856 11.1108L3.44832 11.1105L2.72724 11.8034ZM11.923 19.5755C11.9233 19.575 11.9296 19.5719 11.9415 19.5676C11.9288 19.5738 11.9228 19.576 11.923 19.5755ZM12.3849 19.5671C12.3967 19.5714 12.4031 19.5745 12.4033 19.575C12.4035 19.5754 12.3976 19.5733 12.3849 19.5671Z" stroke="#646464" stroke-width="2"/>
</svg>
